%TF.GenerationSoftware,KiCad,Pcbnew,(6.0.4-0)*%
%TF.CreationDate,2022-11-11T12:05:39+09:00*%
%TF.ProjectId,pm2008-adapter-board,706d3230-3038-42d6-9164-61707465722d,V01*%
%TF.SameCoordinates,Original*%
%TF.FileFunction,Legend,Top*%
%TF.FilePolarity,Positive*%
%FSLAX46Y46*%
G04 Gerber Fmt 4.6, Leading zero omitted, Abs format (unit mm)*
G04 Created by KiCad (PCBNEW (6.0.4-0)) date 2022-11-11 12:05:39*
%MOMM*%
%LPD*%
G01*
G04 APERTURE LIST*
%ADD10C,0.075000*%
%ADD11C,0.150000*%
%ADD12C,0.120000*%
G04 APERTURE END LIST*
D10*
X144143988Y-101049880D02*
X144215416Y-101073690D01*
X144334464Y-101073690D01*
X144382083Y-101049880D01*
X144405892Y-101026071D01*
X144429702Y-100978452D01*
X144429702Y-100930833D01*
X144405892Y-100883214D01*
X144382083Y-100859404D01*
X144334464Y-100835595D01*
X144239226Y-100811785D01*
X144191607Y-100787976D01*
X144167797Y-100764166D01*
X144143988Y-100716547D01*
X144143988Y-100668928D01*
X144167797Y-100621309D01*
X144191607Y-100597500D01*
X144239226Y-100573690D01*
X144358273Y-100573690D01*
X144429702Y-100597500D01*
X144643988Y-101073690D02*
X144643988Y-100573690D01*
X144643988Y-100811785D02*
X144929702Y-100811785D01*
X144929702Y-101073690D02*
X144929702Y-100573690D01*
X145263035Y-100573690D02*
X145358273Y-100573690D01*
X145405892Y-100597500D01*
X145453511Y-100645119D01*
X145477321Y-100740357D01*
X145477321Y-100907023D01*
X145453511Y-101002261D01*
X145405892Y-101049880D01*
X145358273Y-101073690D01*
X145263035Y-101073690D01*
X145215416Y-101049880D01*
X145167797Y-101002261D01*
X145143988Y-100907023D01*
X145143988Y-100740357D01*
X145167797Y-100645119D01*
X145215416Y-100597500D01*
X145263035Y-100573690D01*
X145977321Y-101073690D02*
X145810654Y-100835595D01*
X145691607Y-101073690D02*
X145691607Y-100573690D01*
X145882083Y-100573690D01*
X145929702Y-100597500D01*
X145953511Y-100621309D01*
X145977321Y-100668928D01*
X145977321Y-100740357D01*
X145953511Y-100787976D01*
X145929702Y-100811785D01*
X145882083Y-100835595D01*
X145691607Y-100835595D01*
X146120178Y-100573690D02*
X146405892Y-100573690D01*
X146263035Y-101073690D02*
X146263035Y-100573690D01*
X146953511Y-101026071D02*
X146977321Y-101049880D01*
X146953511Y-101073690D01*
X146929702Y-101049880D01*
X146953511Y-101026071D01*
X146953511Y-101073690D01*
X146953511Y-100764166D02*
X146977321Y-100787976D01*
X146953511Y-100811785D01*
X146929702Y-100787976D01*
X146953511Y-100764166D01*
X146953511Y-100811785D01*
X147572559Y-101073690D02*
X147572559Y-100573690D01*
X147786845Y-100621309D02*
X147810654Y-100597500D01*
X147858273Y-100573690D01*
X147977321Y-100573690D01*
X148024940Y-100597500D01*
X148048750Y-100621309D01*
X148072559Y-100668928D01*
X148072559Y-100716547D01*
X148048750Y-100787976D01*
X147763035Y-101073690D01*
X148072559Y-101073690D01*
X148572559Y-101026071D02*
X148548750Y-101049880D01*
X148477321Y-101073690D01*
X148429702Y-101073690D01*
X148358273Y-101049880D01*
X148310654Y-101002261D01*
X148286845Y-100954642D01*
X148263035Y-100859404D01*
X148263035Y-100787976D01*
X148286845Y-100692738D01*
X148310654Y-100645119D01*
X148358273Y-100597500D01*
X148429702Y-100573690D01*
X148477321Y-100573690D01*
X148548750Y-100597500D01*
X148572559Y-100621309D01*
X144263035Y-101378690D02*
X144358273Y-101378690D01*
X144405892Y-101402500D01*
X144453511Y-101450119D01*
X144477321Y-101545357D01*
X144477321Y-101712023D01*
X144453511Y-101807261D01*
X144405892Y-101854880D01*
X144358273Y-101878690D01*
X144263035Y-101878690D01*
X144215416Y-101854880D01*
X144167797Y-101807261D01*
X144143988Y-101712023D01*
X144143988Y-101545357D01*
X144167797Y-101450119D01*
X144215416Y-101402500D01*
X144263035Y-101378690D01*
X144691607Y-101878690D02*
X144691607Y-101378690D01*
X144882083Y-101378690D01*
X144929702Y-101402500D01*
X144953511Y-101426309D01*
X144977321Y-101473928D01*
X144977321Y-101545357D01*
X144953511Y-101592976D01*
X144929702Y-101616785D01*
X144882083Y-101640595D01*
X144691607Y-101640595D01*
X145191607Y-101616785D02*
X145358273Y-101616785D01*
X145429702Y-101878690D02*
X145191607Y-101878690D01*
X145191607Y-101378690D01*
X145429702Y-101378690D01*
X145643988Y-101878690D02*
X145643988Y-101378690D01*
X145929702Y-101878690D01*
X145929702Y-101378690D01*
X146548750Y-101831071D02*
X146572559Y-101854880D01*
X146548750Y-101878690D01*
X146524940Y-101854880D01*
X146548750Y-101831071D01*
X146548750Y-101878690D01*
X146548750Y-101569166D02*
X146572559Y-101592976D01*
X146548750Y-101616785D01*
X146524940Y-101592976D01*
X146548750Y-101569166D01*
X146548750Y-101616785D01*
X147167797Y-101378690D02*
X147167797Y-101783452D01*
X147191607Y-101831071D01*
X147215416Y-101854880D01*
X147263035Y-101878690D01*
X147358273Y-101878690D01*
X147405892Y-101854880D01*
X147429702Y-101831071D01*
X147453511Y-101783452D01*
X147453511Y-101378690D01*
X147667797Y-101735833D02*
X147905892Y-101735833D01*
X147620178Y-101878690D02*
X147786845Y-101378690D01*
X147953511Y-101878690D01*
X148405892Y-101878690D02*
X148239226Y-101640595D01*
X148120178Y-101878690D02*
X148120178Y-101378690D01*
X148310654Y-101378690D01*
X148358273Y-101402500D01*
X148382083Y-101426309D01*
X148405892Y-101473928D01*
X148405892Y-101545357D01*
X148382083Y-101592976D01*
X148358273Y-101616785D01*
X148310654Y-101640595D01*
X148120178Y-101640595D01*
X148548750Y-101378690D02*
X148834464Y-101378690D01*
X148691607Y-101878690D02*
X148691607Y-101378690D01*
X145416666Y-105573690D02*
X145250000Y-105335595D01*
X145130952Y-105573690D02*
X145130952Y-105073690D01*
X145321428Y-105073690D01*
X145369047Y-105097500D01*
X145392857Y-105121309D01*
X145416666Y-105168928D01*
X145416666Y-105240357D01*
X145392857Y-105287976D01*
X145369047Y-105311785D01*
X145321428Y-105335595D01*
X145130952Y-105335595D01*
X145583333Y-105073690D02*
X145916666Y-105573690D01*
X145916666Y-105073690D02*
X145583333Y-105573690D01*
X146107142Y-105573690D02*
X146107142Y-105073690D01*
X146226190Y-105073690D01*
X146297619Y-105097500D01*
X146345238Y-105145119D01*
X146369047Y-105192738D01*
X146392857Y-105287976D01*
X146392857Y-105359404D01*
X146369047Y-105454642D01*
X146345238Y-105502261D01*
X146297619Y-105549880D01*
X146226190Y-105573690D01*
X146107142Y-105573690D01*
X145142857Y-106354880D02*
X145214285Y-106378690D01*
X145333333Y-106378690D01*
X145380952Y-106354880D01*
X145404761Y-106331071D01*
X145428571Y-106283452D01*
X145428571Y-106235833D01*
X145404761Y-106188214D01*
X145380952Y-106164404D01*
X145333333Y-106140595D01*
X145238095Y-106116785D01*
X145190476Y-106092976D01*
X145166666Y-106069166D01*
X145142857Y-106021547D01*
X145142857Y-105973928D01*
X145166666Y-105926309D01*
X145190476Y-105902500D01*
X145238095Y-105878690D01*
X145357142Y-105878690D01*
X145428571Y-105902500D01*
X145642857Y-106378690D02*
X145642857Y-105878690D01*
X145761904Y-105878690D01*
X145833333Y-105902500D01*
X145880952Y-105950119D01*
X145904761Y-105997738D01*
X145928571Y-106092976D01*
X145928571Y-106164404D01*
X145904761Y-106259642D01*
X145880952Y-106307261D01*
X145833333Y-106354880D01*
X145761904Y-106378690D01*
X145642857Y-106378690D01*
X146119047Y-106235833D02*
X146357142Y-106235833D01*
X146071428Y-106378690D02*
X146238095Y-105878690D01*
X146404761Y-106378690D01*
X150083333Y-105976190D02*
X150250000Y-106476190D01*
X150416666Y-105976190D01*
X150583333Y-106476190D02*
X150583333Y-105976190D01*
X150702380Y-105976190D01*
X150773809Y-106000000D01*
X150821428Y-106047619D01*
X150845238Y-106095238D01*
X150869047Y-106190476D01*
X150869047Y-106261904D01*
X150845238Y-106357142D01*
X150821428Y-106404761D01*
X150773809Y-106452380D01*
X150702380Y-106476190D01*
X150583333Y-106476190D01*
X151083333Y-106476190D02*
X151083333Y-105976190D01*
X151202380Y-105976190D01*
X151273809Y-106000000D01*
X151321428Y-106047619D01*
X151345238Y-106095238D01*
X151369047Y-106190476D01*
X151369047Y-106261904D01*
X151345238Y-106357142D01*
X151321428Y-106404761D01*
X151273809Y-106452380D01*
X151202380Y-106476190D01*
X151083333Y-106476190D01*
X142619047Y-105073690D02*
X142904761Y-105073690D01*
X142761904Y-105573690D02*
X142761904Y-105073690D01*
X143023809Y-105073690D02*
X143357142Y-105573690D01*
X143357142Y-105073690D02*
X143023809Y-105573690D01*
X143547619Y-105573690D02*
X143547619Y-105073690D01*
X143666666Y-105073690D01*
X143738095Y-105097500D01*
X143785714Y-105145119D01*
X143809523Y-105192738D01*
X143833333Y-105287976D01*
X143833333Y-105359404D01*
X143809523Y-105454642D01*
X143785714Y-105502261D01*
X143738095Y-105549880D01*
X143666666Y-105573690D01*
X143547619Y-105573690D01*
X142654761Y-106354880D02*
X142726190Y-106378690D01*
X142845238Y-106378690D01*
X142892857Y-106354880D01*
X142916666Y-106331071D01*
X142940476Y-106283452D01*
X142940476Y-106235833D01*
X142916666Y-106188214D01*
X142892857Y-106164404D01*
X142845238Y-106140595D01*
X142750000Y-106116785D01*
X142702380Y-106092976D01*
X142678571Y-106069166D01*
X142654761Y-106021547D01*
X142654761Y-105973928D01*
X142678571Y-105926309D01*
X142702380Y-105902500D01*
X142750000Y-105878690D01*
X142869047Y-105878690D01*
X142940476Y-105902500D01*
X143440476Y-106331071D02*
X143416666Y-106354880D01*
X143345238Y-106378690D01*
X143297619Y-106378690D01*
X143226190Y-106354880D01*
X143178571Y-106307261D01*
X143154761Y-106259642D01*
X143130952Y-106164404D01*
X143130952Y-106092976D01*
X143154761Y-105997738D01*
X143178571Y-105950119D01*
X143226190Y-105902500D01*
X143297619Y-105878690D01*
X143345238Y-105878690D01*
X143416666Y-105902500D01*
X143440476Y-105926309D01*
X143892857Y-106378690D02*
X143654761Y-106378690D01*
X143654761Y-105878690D01*
X147869047Y-106000000D02*
X147821428Y-105976190D01*
X147750000Y-105976190D01*
X147678571Y-106000000D01*
X147630952Y-106047619D01*
X147607142Y-106095238D01*
X147583333Y-106190476D01*
X147583333Y-106261904D01*
X147607142Y-106357142D01*
X147630952Y-106404761D01*
X147678571Y-106452380D01*
X147750000Y-106476190D01*
X147797619Y-106476190D01*
X147869047Y-106452380D01*
X147892857Y-106428571D01*
X147892857Y-106261904D01*
X147797619Y-106261904D01*
X148107142Y-106476190D02*
X148107142Y-105976190D01*
X148392857Y-106476190D01*
X148392857Y-105976190D01*
X148630952Y-106476190D02*
X148630952Y-105976190D01*
X148750000Y-105976190D01*
X148821428Y-106000000D01*
X148869047Y-106047619D01*
X148892857Y-106095238D01*
X148916666Y-106190476D01*
X148916666Y-106261904D01*
X148892857Y-106357142D01*
X148869047Y-106404761D01*
X148821428Y-106452380D01*
X148750000Y-106476190D01*
X148630952Y-106476190D01*
D11*
%TO.C,J1*%
X151137380Y-92198333D02*
X151851666Y-92198333D01*
X151994523Y-92245952D01*
X152089761Y-92341190D01*
X152137380Y-92484047D01*
X152137380Y-92579285D01*
X152137380Y-91198333D02*
X152137380Y-91769761D01*
X152137380Y-91484047D02*
X151137380Y-91484047D01*
X151280238Y-91579285D01*
X151375476Y-91674523D01*
X151423095Y-91769761D01*
%TO.C,J3*%
X142166666Y-97992380D02*
X142166666Y-98706666D01*
X142119047Y-98849523D01*
X142023809Y-98944761D01*
X141880952Y-98992380D01*
X141785714Y-98992380D01*
X142547619Y-97992380D02*
X143166666Y-97992380D01*
X142833333Y-98373333D01*
X142976190Y-98373333D01*
X143071428Y-98420952D01*
X143119047Y-98468571D01*
X143166666Y-98563809D01*
X143166666Y-98801904D01*
X143119047Y-98897142D01*
X143071428Y-98944761D01*
X142976190Y-98992380D01*
X142690476Y-98992380D01*
X142595238Y-98944761D01*
X142547619Y-98897142D01*
%TO.C,J2*%
X152452380Y-107833333D02*
X153166666Y-107833333D01*
X153309523Y-107880952D01*
X153404761Y-107976190D01*
X153452380Y-108119047D01*
X153452380Y-108214285D01*
X152547619Y-107404761D02*
X152500000Y-107357142D01*
X152452380Y-107261904D01*
X152452380Y-107023809D01*
X152500000Y-106928571D01*
X152547619Y-106880952D01*
X152642857Y-106833333D01*
X152738095Y-106833333D01*
X152880952Y-106880952D01*
X153452380Y-107452380D01*
X153452380Y-106833333D01*
D12*
%TO.C,J1*%
X143775000Y-90280000D02*
X143775000Y-90922470D01*
X143775000Y-92807530D02*
X143775000Y-93450000D01*
X148915000Y-93260000D02*
X148915000Y-93450000D01*
X143775000Y-91537530D02*
X143775000Y-92192470D01*
X150310000Y-93450000D02*
X149550000Y-93450000D01*
X148915000Y-93450000D02*
X143775000Y-93450000D01*
X150310000Y-92500000D02*
X150310000Y-93450000D01*
X150245000Y-91537530D02*
X150245000Y-91740000D01*
X150245000Y-90280000D02*
X150245000Y-90922470D01*
X150245000Y-90280000D02*
X143775000Y-90280000D01*
%TO.C,J3*%
X141170000Y-102270000D02*
X141170000Y-104870000D01*
X143830000Y-102270000D02*
X143830000Y-104870000D01*
X141170000Y-99670000D02*
X142500000Y-99670000D01*
X141170000Y-104870000D02*
X143830000Y-104870000D01*
X141170000Y-101000000D02*
X141170000Y-99670000D01*
X141170000Y-102270000D02*
X143830000Y-102270000D01*
%TO.C,J2*%
X141850000Y-106670000D02*
X141850000Y-109330000D01*
X149530000Y-106670000D02*
X149530000Y-109330000D01*
X150800000Y-106670000D02*
X152130000Y-106670000D01*
X149530000Y-109330000D02*
X141850000Y-109330000D01*
X152130000Y-106670000D02*
X152130000Y-108000000D01*
X149530000Y-106670000D02*
X141850000Y-106670000D01*
%TD*%
M02*
